<svg width="22" height="21" viewBox="0 0 22 21" fill="none" xmlns="http://www.w3.org/2000/svg">
<path d="M19.8293 10.2259C17.8499 6.59174 14.3787 4.39258 10.5374 4.39258C6.69611 4.39258 3.21899 6.59174 1.25723 10.2259L1.09277 10.5001L1.24548 10.7801C3.22486 14.4142 6.69611 16.6134 10.5374 16.6134C14.3787 16.6134 17.8558 14.4434 19.8293 10.7801L19.982 10.5001L19.8293 10.2259ZM10.5374 15.4176C7.2306 15.4176 4.19399 13.5859 2.43194 10.5001C4.19399 7.41424 7.2306 5.58258 10.5374 5.58258C13.8442 5.58258 16.8456 7.42008 18.637 10.5001C16.8456 13.5859 13.8383 15.4176 10.5374 15.4176Z" fill="white"/>
<path d="M10.7078 6.51573C9.91146 6.5215 9.13466 6.76154 8.47556 7.20551C7.81646 7.64949 7.30462 8.27749 7.00468 9.01021C6.70475 9.74292 6.63017 10.5475 6.79037 11.3223C6.95058 12.097 7.33837 12.8073 7.90478 13.3633C8.47119 13.9193 9.19081 14.2962 9.97274 14.4463C10.7547 14.5963 11.5639 14.5129 12.2981 14.2065C13.0323 13.9001 13.6586 13.3845 14.0979 12.7248C14.5373 12.0651 14.7699 11.2908 14.7664 10.4999C14.7641 9.9734 14.6572 9.45253 14.4519 8.96714C14.2465 8.48175 13.9467 8.04138 13.5697 7.67126C13.1927 7.30114 12.7458 7.00855 12.2547 6.81027C11.7636 6.61198 11.238 6.51189 10.7078 6.51573ZM10.7078 13.3524C10.1453 13.3466 9.59703 13.1759 9.13186 12.8617C8.6667 12.5475 8.30539 12.1038 8.09332 11.5863C7.88125 11.0688 7.82787 10.5006 7.93989 9.95305C8.05191 9.40552 8.32432 8.90308 8.72293 8.50881C9.12153 8.11455 9.62855 7.84605 10.1803 7.73704C10.732 7.62802 11.3039 7.68336 11.8241 7.89609C12.3443 8.10882 12.7896 8.46946 13.1041 8.93272C13.4186 9.39598 13.5882 9.9412 13.5917 10.4999C13.5933 10.8759 13.5197 11.2485 13.3752 11.596C13.2307 11.9436 13.0181 12.2592 12.7498 12.5245C12.4816 12.7899 12.1629 12.9997 11.8124 13.1418C11.4619 13.2839 11.0864 13.3555 10.7078 13.3524Z" fill="white"/>
</svg>
