<svg width="21" height="20" viewBox="0 0 21 20" fill="none" xmlns="http://www.w3.org/2000/svg">
<path d="M13.677 2.05887C13.7013 1.9804 13.7098 1.89795 13.702 1.81623C13.6942 1.7345 13.6703 1.6551 13.6316 1.58255C13.5929 1.51001 13.5402 1.44574 13.4765 1.39342C13.4128 1.3411 13.3394 1.30175 13.2604 1.27762C13.1814 1.25349 13.0984 1.24505 13.0161 1.25278C12.9338 1.26051 12.8538 1.28427 12.7808 1.32269C12.7077 1.36111 12.643 1.41344 12.5903 1.4767C12.5377 1.53996 12.498 1.6129 12.4737 1.69137L7.4393 17.9414C7.39023 18.0998 7.40656 18.2712 7.48468 18.4177C7.56281 18.5642 7.69634 18.6739 7.8559 18.7226C8.01546 18.7714 8.18798 18.7551 8.3355 18.6775C8.48302 18.6 8.59346 18.4673 8.64253 18.3089L13.677 2.05887ZM6.59855 5.18262C6.65715 5.24067 6.70365 5.30964 6.73538 5.38557C6.7671 5.46151 6.78343 5.54291 6.78343 5.62512C6.78343 5.70733 6.7671 5.78873 6.73538 5.86466C6.70365 5.94059 6.65715 6.00956 6.59855 6.06762L2.6377 10.0001L6.59855 13.9326C6.71672 14.05 6.7831 14.2091 6.7831 14.3751C6.7831 14.5411 6.71672 14.7003 6.59855 14.8176C6.48038 14.935 6.32011 15.0009 6.153 15.0009C5.98589 15.0009 5.82562 14.935 5.70745 14.8176L1.30231 10.4426C1.24371 10.3846 1.19721 10.3156 1.16549 10.2397C1.13376 10.1637 1.11743 10.0823 1.11743 10.0001C1.11743 9.91791 1.13376 9.83651 1.16549 9.76057C1.19721 9.68464 1.24371 9.61567 1.30231 9.55762L5.70745 5.18262C5.76591 5.12441 5.83535 5.07823 5.91181 5.04673C5.98826 5.01522 6.07023 4.999 6.153 4.999C6.23578 4.999 6.31774 5.01522 6.39419 5.04673C6.47065 5.07823 6.54009 5.12441 6.59855 5.18262ZM14.5177 5.18262C14.4591 5.24067 14.4126 5.30964 14.3809 5.38557C14.3492 5.46151 14.3328 5.54291 14.3328 5.62512C14.3328 5.70733 14.3492 5.78873 14.3809 5.86466C14.4126 5.94059 14.4591 6.00956 14.5177 6.06762L18.4786 10.0001L14.5177 13.9326C14.4592 13.9907 14.4128 14.0597 14.3811 14.1356C14.3495 14.2116 14.3332 14.2929 14.3332 14.3751C14.3332 14.4573 14.3495 14.5387 14.3811 14.6146C14.4128 14.6905 14.4592 14.7595 14.5177 14.8176C14.5762 14.8757 14.6457 14.9218 14.7221 14.9533C14.7986 14.9847 14.8805 15.0009 14.9633 15.0009C15.046 15.0009 15.128 14.9847 15.2044 14.9533C15.2809 14.9218 15.3503 14.8757 15.4088 14.8176L19.814 10.4426C19.8726 10.3846 19.9191 10.3156 19.9508 10.2397C19.9825 10.1637 19.9988 10.0823 19.9988 10.0001C19.9988 9.91791 19.9825 9.83651 19.9508 9.76057C19.9191 9.68464 19.8726 9.61567 19.814 9.55762L15.4088 5.18262C15.3504 5.12441 15.2809 5.07823 15.2045 5.04673C15.128 5.01522 15.0461 4.999 14.9633 4.999C14.8805 4.999 14.7985 5.01522 14.7221 5.04673C14.6456 5.07823 14.5762 5.12441 14.5177 5.18262Z" fill="white"/>
</svg>
